<?xml version="1.0" standalone="no"?>
<!DOCTYPE svg PUBLIC "-//W3C//DTD SVG 20010904//EN"
 "http://www.w3.org/TR/2001/REC-SVG-20010904/DTD/svg10.dtd">
<svg version="1.0" xmlns="http://www.w3.org/2000/svg"
 width="1024.000000pt" height="1024.000000pt" viewBox="0 0 1024.000000 1024.000000"
 preserveAspectRatio="xMidYMid meet">

<g transform="translate(0.000000,1024.000000) scale(0.100000,-0.100000)"
fill="#000000" stroke="none">
<path d="M7130 9924 c-19 -2 -84 -9 -145 -15 -164 -15 -390 -56 -570 -101
l-160 -41 -120 17 c-247 33 -337 39 -600 40 -216 1 -294 -3 -390 -18 -257 -39
-513 -121 -712 -227 l-93 -49 -162 49 c-301 91 -579 151 -888 193 -226 30
-687 33 -885 5 -470 -67 -847 -242 -1136 -527 -308 -304 -488 -691 -571 -1230
-20 -129 -22 -184 -23 -505 0 -345 1 -367 28 -539 104 -671 308 -1518 522
-2176 310 -950 648 -1563 1010 -1833 326 -244 698 -246 1018 -5 l69 51 38 -45
c79 -92 258 -194 425 -243 166 -48 325 -69 525 -69 251 0 438 36 628 120 46
20 52 21 52 6 0 -9 5 -147 10 -307 17 -481 42 -772 86 -995 29 -145 125 -440
183 -566 148 -315 382 -507 706 -581 98 -23 359 -22 485 0 454 82 748 215 975
442 204 203 347 476 440 840 71 277 116 611 135 990 6 121 15 270 21 330 l11
110 246 0 c263 1 355 11 582 61 170 38 280 77 425 149 443 219 695 494 695
759 0 129 -41 227 -133 314 -135 127 -298 152 -612 93 -199 -37 -340 -53 -426
-49 l-66 3 104 180 c121 211 353 674 449 895 344 801 558 1562 625 2225 18
175 15 517 -5 645 -52 339 -146 511 -435 801 -440 439 -966 691 -1641 785
-109 15 -631 28 -720 18z m655 -249 c615 -72 1132 -318 1537 -731 233 -236
299 -352 344 -600 25 -138 25 -520 1 -724 -61 -493 -218 -1093 -435 -1660
-211 -551 -527 -1181 -820 -1634 l-64 -100 22 -18 c12 -10 51 -27 86 -37 190
-59 439 -52 850 24 200 37 280 33 355 -18 49 -33 72 -80 72 -146 0 -31 -7 -72
-15 -91 -57 -131 -255 -300 -510 -434 -188 -99 -400 -158 -688 -192 -187 -21
-467 -15 -581 14 l-77 19 -11 -106 c-79 -717 -196 -1557 -247 -1756 -111 -442
-348 -694 -786 -839 -244 -81 -496 -117 -681 -97 -345 37 -590 221 -758 566
-72 150 -103 255 -128 443 -40 288 -58 629 -67 1243 l-7 436 -91 -69 c-227
-172 -470 -251 -776 -251 -318 0 -600 77 -744 205 -89 77 -118 186 -75 274 49
101 155 156 429 219 238 55 361 96 422 141 52 37 243 268 234 282 -3 5 -40 12
-83 16 -132 12 -285 53 -406 111 l-58 28 -31 -29 c-58 -54 -395 -431 -563
-630 -276 -325 -379 -415 -535 -466 -91 -29 -231 -29 -320 1 -365 124 -705
633 -1032 1545 -250 699 -489 1649 -609 2421 -27 178 -38 608 -19 808 74 817
429 1349 1060 1592 115 45 249 80 405 107 114 19 166 22 425 23 308 0 384 -6
655 -51 260 -43 647 -142 844 -217 l63 -24 92 55 c154 94 340 168 526 211 300
71 747 69 1108 -4 l125 -26 76 25 c233 77 593 140 906 160 114 7 451 -4 580
-19z"/>
<path d="M7095 9433 c-73 -6 -258 -33 -349 -49 l-88 -16 133 -67 c479 -241
877 -604 1199 -1093 159 -240 313 -562 371 -773 33 -122 24 -367 -27 -700 -34
-229 -38 -268 -38 -460 0 -157 6 -252 22 -375 37 -287 45 -411 39 -608 -8
-267 -52 -450 -158 -659 l-49 -96 26 -34 c31 -41 17 -55 136 142 422 700 773
1529 962 2270 182 716 213 1288 86 1583 -31 71 -205 268 -340 385 -353 305
-771 483 -1276 542 -118 14 -529 19 -649 8z"/>
<path d="M5285 9333 c-92 -8 -272 -45 -363 -74 -273 -88 -528 -257 -706 -469
-272 -324 -451 -747 -540 -1280 -26 -151 -50 -349 -44 -356 2 -2 44 17 93 41
279 140 573 213 810 202 180 -9 298 -48 421 -140 143 -106 224 -262 278 -538
65 -328 91 -604 83 -874 -10 -342 -64 -573 -212 -916 -124 -285 -229 -562
-250 -656 l-7 -33 59 6 c68 7 159 -13 240 -52 116 -56 224 -188 268 -326 l24
-77 0 -663 c0 -833 21 -1306 71 -1604 24 -141 38 -183 113 -329 53 -103 74
-132 147 -205 141 -143 263 -190 488 -190 278 0 638 113 817 258 149 120 239
286 299 553 63 283 239 1668 256 2024 10 196 29 288 78 380 53 98 173 191 290
226 23 7 42 14 42 16 0 2 -45 61 -99 131 -121 155 -188 262 -257 408 -29 62
-100 198 -158 303 -331 597 -496 994 -563 1355 -23 128 -23 358 1 451 72 281
264 450 582 514 126 25 300 35 434 23 58 -5 107 -7 109 -6 15 12 -131 330
-224 491 -537 916 -1389 1421 -2380 1411 -88 -1 -178 -3 -200 -5z"/>
<path d="M2600 9314 c-694 -65 -1129 -381 -1324 -964 -74 -221 -105 -432 -113
-760 -7 -327 18 -542 127 -1075 206 -1004 494 -1923 785 -2500 291 -578 548
-801 790 -686 85 40 140 94 369 360 173 202 282 325 533 601 l42 47 -65 64
c-189 186 -329 441 -389 710 -25 113 -31 376 -11 529 39 307 48 696 26 1055
-39 602 105 1327 360 1825 91 176 195 326 343 492 l68 77 -88 26 c-250 77
-548 142 -793 175 -149 20 -547 34 -660 24z"/>
<path d="M7635 7176 c-364 -60 -488 -266 -415 -688 52 -307 213 -689 531
-1268 74 -135 148 -274 163 -310 16 -36 38 -80 49 -99 l20 -34 18 36 c30 57
67 181 85 280 12 65 17 146 17 272 -1 168 -6 238 -49 585 -32 265 -23 499 36
885 11 72 23 175 26 231 l7 101 -29 6 c-64 15 -379 16 -459 3z m172 -141 c17
-7 39 -25 48 -38 15 -23 15 -28 0 -64 -36 -86 -146 -163 -235 -163 -93 0 -213
86 -213 151 0 97 261 171 400 114z"/>
<path d="M4270 7119 c-52 -11 -135 -34 -185 -50 -110 -37 -353 -155 -419 -205
l-49 -36 7 -67 c3 -36 9 -194 12 -351 7 -306 -2 -498 -37 -800 -42 -355 11
-603 183 -857 175 -260 440 -420 744 -449 l71 -6 17 63 c32 116 147 421 223
594 41 93 91 213 110 265 142 389 152 863 32 1465 -55 276 -140 392 -324 439
-84 22 -265 20 -385 -5z m412 -160 c84 -24 148 -79 148 -126 0 -78 -129 -173
-234 -173 -124 0 -266 122 -266 228 0 89 173 123 352 71z"/>
<path d="M8102 4005 c-41 -13 -91 -35 -112 -49 -65 -43 -104 -158 -98 -288 l3
-63 52 -17 c160 -53 491 -47 788 16 182 38 354 112 520 224 103 69 181 136
150 128 -11 -3 -85 -16 -165 -30 -480 -82 -836 -52 -1032 85 -14 11 -28 19
-30 19 -1 -1 -36 -12 -76 -25z"/>
<path d="M4895 3978 c-37 -20 -77 -63 -205 -218 -128 -157 -194 -217 -285
-263 -71 -35 -217 -80 -380 -116 -161 -36 -275 -70 -275 -82 0 -14 127 -69
207 -89 139 -34 237 -43 397 -37 210 8 324 39 491 136 93 54 266 218 311 296
39 67 38 135 -1 223 -53 118 -182 193 -260 150z"/>
</g>
</svg>
